<svg xmlns="http://www.w3.org/2000/svg" width="24" height="24" viewBox="0 0 24 24"><path d="M5.832 15.602c0-.223-.22-.277-.408-.277h-.33v.575h.3c.204 0 .438-.048.438-.298zM7.998 15.33h-.304v1.418h.304c.376 0 .8-.152.8-.705 0-.588-.424-.713-.8-.713zM14.912 16.285h.638l-.316-.832M6.822 17.98c-.547 0-.875.43-.875.92s.328.92.875.92.873-.43.873-.92-.326-.92-.873-.92zM3.942 15.574c0-.184-.13-.256-.406-.256h-.292v.533h.324c.244.002.374-.1.374-.276z"/><path d="M23.28.72C22.57-.002 21.6 0 21.6 0H2.396S1.445-.005.72.72C-.005 1.446 0 2.402 0 2.402v19.196s.005.96.72 1.683c.715.72 1.683.72 1.683.72H21.6s.953-.008 1.68-.72c.726-.713.72-1.68.72-1.68V2.4s-.01-.958-.72-1.68zM9.524 3.984c2.166 0 4.205.24 5.743.677 1.583.45 2.456 1.067 2.456 1.735 0 .67-.873 1.286-2.457 1.737-1.022.29-2.264.495-3.615.6 1.353.104 2.594.307 3.615.597 1.584.45 2.455 1.065 2.455 1.733 0 .668-.872 1.286-2.456 1.737-1.54.44-3.58.682-5.744.682v-.162c2.56 0 4.643-1.012 4.643-2.253 0-1.242-2.082-2.253-4.64-2.253v-.162c2.558 0 4.64-1.01 4.64-2.253s-2.08-2.254-4.64-2.254v-.162zm6.523 11.352v-.318h1.62v.318h-.626v1.732h-.364v-1.732h-.63zm-8.094-8.26c1.523-.45 3.547-.698 5.697-.698v.162c-1.25 0-2.44.247-3.35.694-.88.433-1.385 1.015-1.385 1.597 0 1.243 2.083 2.253 4.643 2.253v.162c-2.153 0-4.16-.242-5.65-.68-1.525-.448-2.364-1.065-2.364-1.736 0-.673.855-1.296 2.41-1.755zm-1.01 7.942v2.05H6.58v-2.05h.364zm-4.064 0h.8c.31 0 .627.143.627.516 0 .23-.145.385-.355.45v.003c.257.037.442.21.442.484 0 .446-.388.6-.776.6h-.74v-2.052zm.97 4.998c-.633 0-1.107-.47-1.107-1.117s.475-1.118 1.108-1.118c.266 0 .55.1.737.336l-.19.142c-.084-.14-.32-.28-.547-.28-.546 0-.873.43-.873.92s.327.92.873.92c.223 0 .45-.073.61-.32l.177.128c-.14.218-.434.388-.786.388zM5.096 16.2v.868H4.73v-2.05h.712c.384 0 .755.153.755.587 0 .295-.183.488-.47.553l.548.91h-.44l-.475-.87h-.265zm1.727 3.816c-.635 0-1.11-.47-1.11-1.117s.476-1.118 1.11-1.118c.633 0 1.108.47 1.108 1.117s-.475 1.116-1.108 1.116zm1.234-2.948H7.33v-2.05h.726c.536 0 1.133.253 1.133 1.024-.002.718-.598 1.026-1.134 1.026zm2.326 2.895H9.175v-2.127h.215v1.928h.992v.2zm.93-3.004c-.204.1-.45.16-.772.16-.66 0-1.12-.444-1.12-1.083 0-.658.48-1.072 1.112-1.072.324 0 .613.104.777.258l-.252.273c-.104-.117-.304-.21-.524-.21-.432 0-.713.327-.713.75 0 .44.28.755.73.755.154 0 .29-.02.41-.07v-.52h-.433v-.304h.784v1.063zm1.532 3.003h-1.207v-2.127h.216v1.928h.99v.2zm.57-2.895l-.48-1.537h-.005l-.482 1.538h-.352l-.6-2.05h.4l.395 1.505h.008l.45-1.506h.378l.442 1.506h.006l.405-1.506h.387l-.6 2.05h-.352zm1.996 2.895h-1.355v-2.127h1.32v.197H14.27v.725h1.03v.197h-1.03v.81h1.14v.198zm.457-2.895l-.19-.47h-.89l-.185.47h-.407l.89-2.05h.316l.884 2.05h-.417zm2.625 2.733c-.237.142-.547.216-.805.216-.635 0-1.11-.47-1.11-1.117s.476-1.118 1.11-1.118c.336 0 .58.096.77.285l-.163.16c-.145-.152-.346-.248-.606-.248-.548 0-.875.43-.875.92s.327.92.875.92c.22 0 .43-.062.588-.15v-.714h-.507v-.197h.723v1.04zm.872-2.732h-1.41v-2.05h1.358v.317h-.992v.52h.94v.308h-.94v.58h1.044v.325zm1.862 2.895h-1.354v-2.127h1.318v.197h-1.103v.725h1.03v.197h-1.03v.81h1.14v.198zm-.408-2.895l-.475-.87h-.267v.87h-.365v-2.05h.714c.386 0 .756.153.756.587 0 .295-.183.488-.47.553l.547.91h-.44z"/><path d="M20.815 15.602c0-.223-.22-.277-.408-.277h-.33v.575h.298c.206 0 .44-.048.44-.298zM4.028 16.453c0-.213-.147-.29-.442-.29h-.342v.597h.327c.19 0 .458-.037.458-.307z"/></svg>