<svg class="svg-facebook-icon" xmlns="http://www.w3.org/2000/svg" viewBox="0 0 24 24"><path d="M23.28.72C22.57-.002 21.6 0 21.6 0H2.395S1.445-.005.72.72C-.005 1.446 0 2.402 0 2.402v19.195s.005.962.72 1.683c.715.72 1.683.72 1.683.72H12.82v-9.294H9.69v-3.622h3.13v-2.67c0-3.1 1.892-4.79 4.658-4.79 1.324 0 2.463.1 2.794.144v3.24h-1.918c-1.504 0-1.795.715-1.795 1.764v2.312h3.586l-.467 3.622h-3.12V24h5.04s.954-.008 1.68-.72.72-1.68.72-1.68V2.4s-.01-.958-.72-1.68z"/><path d="M23.28.72C22.57-.002 21.6 0 21.6 0H2.395S1.445-.005.72.72C-.005 1.446 0 2.402 0 2.402v19.195s.005.962.72 1.683c.715.72 1.683.72 1.683.72H12.82v-9.294H9.69v-3.622h3.13v-2.67c0-3.1 1.892-4.79 4.658-4.79 1.324 0 2.463.1 2.794.144v3.24h-1.918c-1.504 0-1.795.715-1.795 1.764v2.312h3.586l-.467 3.622h-3.12V24h5.04s.954-.008 1.68-.72.72-1.68.72-1.68V2.4s-.01-.958-.72-1.68z"/></svg>