<svg xmlns="http://www.w3.org/2000/svg" width="24" height="24" viewBox="0 0 24 24"><path d="M23.28.72C22.57-.002 21.6 0 21.6 0H2.396S1.445-.005.72.72C-.005 1.446 0 2.402 0 2.402v19.196s.005.96.72 1.683c.715.72 1.683.72 1.683.72H21.6s.953-.008 1.68-.72c.726-.713.72-1.68.72-1.68V2.4s-.01-.958-.72-1.68zm-2.257 17.987c0 1.273-1.043 2.316-2.316 2.316H5.294c-1.274 0-2.317-1.043-2.317-2.316V5.292c0-1.273 1.043-2.316 2.317-2.316h13.413c1.273 0 2.316 1.042 2.316 2.316v13.415z"/><path d="M16.123 8.55h2.04c.446 0 .81-.364.81-.81V5.793c0-.447-.364-.812-.81-.812h-2.04c-.447 0-.812.365-.812.812V7.74c0 .446.366.81.813.81z"/><ellipse cx="12.018" cy="11.961" rx="3.625" ry="3.512"/><path d="M17.627 12.156c0 3.002-2.512 5.436-5.61 5.436-3.098 0-5.61-2.434-5.61-5.436 0-.538.083-1.057.232-1.55H4.98v7.624c0 .395.322.72.717.72h12.565c.395 0 .72-.325.72-.72v-7.623h-1.59c.15.493.232 1.01.232 1.55z"/></svg>