<svg xmlns="http://www.w3.org/2000/svg" version="1.1" id="Layer_1" x="0" y="0" width="814.39" height="379.84" viewBox="0 0 814.39 379.84" enable-background="new 0 0 814.391 379.843" xml:space="preserve">
  <polygon points="0 225.98 15.56 225.98 33.1 133.74 33.46 133.74 77.24 231.59 121.19 133.74 121.55 133.74 139.1 225.98 154.66 225.98 126.98 81.82 77.24 196.32 27.68 81.82 "/>
  <path d="M214.74 116.49c-6.29-4.5-14.09-7.04-21.73-7.04 -20.68 0-37.62 16.19-37.62 37.17 0 21.29 16.19 37.17 37.47 37.17 8.4 0 15.44-2.55 22.33-7.19v-16.04h-0.3c-5.85 7.64-12.89 12.14-22.93 12.14 -14.69 0-24.28-12.14-24.28-26.08 0-14.09 10.34-26.08 24.88-26.08 9.44 0 16.34 4.8 21.88 11.84h0.3V116.49z"/>
  <polygon points="221.69 225.98 237.24 225.98 254.79 133.74 255.15 133.74 298.92 231.59 342.88 133.74 343.24 133.74 360.78 225.98 376.34 225.98 348.66 81.82 298.92 196.32 249.36 81.82 "/>
  <rect x="392.22" y="89.6" width="15.19" height="136.38"/>
  <polygon points="444.73 89.6 429.54 89.6 429.54 225.98 482.36 225.98 482.36 211.88 444.73 211.88 "/>
  <polygon points="510.63 89.6 495.44 89.6 495.44 225.98 548.26 225.98 548.26 211.88 510.63 211.88 "/>
  <path d="M640.95 173.17h-46.13l23.34-54.63L640.95 173.17zM646.92 187.28l16.1 38.71h16.82L618.52 83.09 555.57 225.98h16.64l16.46-38.71H646.92z"/>
  <polygon points="690.15 225.98 705.34 225.98 705.34 120.89 811.7 232.13 811.7 89.6 796.51 89.6 796.51 195.23 690.15 83.81 "/>
  <rect x="1.92" y="53.35" width="271.9" height="7.7"/>
  <rect x="542.49" y="53.35" width="269.21" height="7.7"/>
  <polygon points="346.66 6.73 362.53 6.73 362.53 0 323.71 0 323.71 6.73 339.41 6.73 339.41 65.05 346.66 65.05 "/>
  <polygon points="384.93 26.4 384.93 0 377.68 0 377.68 65.05 384.93 65.05 384.93 33.13 418.23 33.13 418.23 65.05 425.47 65.05 425.47 0 418.23 0 418.23 26.4 "/>
  <polygon points="444.43 65.05 478.17 65.05 478.17 58.32 451.68 58.32 451.68 32.78 477.39 32.78 477.39 26.06 451.68 26.06 451.68 6.73 478.17 6.73 478.17 0 444.43 0 "/>
  <polygon points="36.13 259.46 61.12 259.46 61.12 248.87 0 248.87 0 259.46 24.72 259.46 24.72 351.27 36.13 351.27 "/>
  <polygon points="131.79 290.43 131.79 248.87 120.38 248.87 120.38 351.27 131.79 351.27 131.79 301.02 184.21 301.02 184.21 351.27 195.62 351.27 195.62 248.87 184.21 248.87 184.21 290.43 "/>
  <polygon points="265.21 351.27 318.32 351.27 318.32 340.68 276.62 340.68 276.62 300.48 317.1 300.48 317.1 289.89 276.62 289.89 276.62 259.46 318.32 259.46 318.32 248.87 265.21 248.87 "/>
  <path d="M438.53 311.61H403.89l17.52-41.02L438.53 311.61zM443 322.21l12.09 29.06h12.63l-46.04-107.29 -47.26 107.29h12.5l12.36-29.06H443z"/>
  <polygon points="546.99 259.46 571.98 259.46 571.98 248.87 510.87 248.87 510.87 259.46 535.58 259.46 535.58 351.27 546.99 351.27 "/>
  <path d="M647.24 306.32h2.85l30.97 44.96h13.99l-32.6-45.9c15.76-1.36 25.67-12.5 25.67-28.25 0-23.09-18.06-28.25-37.48-28.25h-14.8v102.4h11.41V306.32zM647.24 259.46h3.4c13.72 0 26.08 1.63 26.08 18.47 0 15.89-13.04 18.33-25.94 18.33h-3.53V259.46z"/>
  <polygon points="759.94 351.27 813.04 351.27 813.04 340.68 771.35 340.68 771.35 300.48 811.82 300.48 811.82 289.89 771.35 289.89 771.35 259.46 813.04 259.46 813.04 248.87 759.94 248.87 "/>
  <rect y="372.14" width="814.39" height="7.7"/>
</svg>