<svg xmlns="http://www.w3.org/2000/svg" width="24" height="24" viewBox="0 0 24 24"><path d="M23.28.72C22.57-.002 21.6 0 21.6 0H2.396S1.445-.005.72.72C-.005 1.446 0 2.402 0 2.402v19.196s.005.96.72 1.683c.715.72 1.683.72 1.683.72H21.6s.953-.008 1.68-.72c.726-.713.72-1.68.72-1.68V2.4s-.01-.958-.72-1.68zm-4.27 7.806c.007.15.01.3.01.453 0 4.615-3.514 9.94-9.94 9.94-1.975 0-3.81-.58-5.357-1.57.274.032.55.048.833.048 1.638 0 3.144-.557 4.34-1.494-1.53-.03-2.82-1.04-3.264-2.426.213.04.432.062.657.062.318 0 .627-.043.92-.123-1.6-.322-2.803-1.733-2.803-3.427v-.043c.47.26 1.01.42 1.583.437-.938-.627-1.555-1.696-1.555-2.908 0-.64.173-1.24.473-1.756 1.724 2.113 4.298 3.505 7.203 3.65-.06-.256-.09-.522-.09-.796 0-1.93 1.566-3.495 3.496-3.495 1.004 0 1.912.424 2.55 1.103.797-.156 1.544-.447 2.22-.848-.26.816-.815 1.5-1.536 1.934.705-.086 1.38-.273 2.007-.55-.472.698-1.064 1.315-1.746 1.806z"/></svg>